# xmcd CD database file
#
# Track frame offsets:
#	150
#	13058
#	25532
#	38427
#	51474
#	63429
#	76224
#	89483
#	102272
#	114785
#	126516
#	139187
#	152816
#	165665
#	177387
#	191996
#	203517
#	215145
#	227819
#	238471
#	250194
#	263600
#	276798
#	287927
#
# Disc length: 3999 seconds
#
# Revision: 0
# Processed by: cddbd v1.5.2PL0 Copyright (c) Steve Scherf et al.
# Submitted via: CDex 1.70beta2
#
DISCID=5e0f9d18
DTITLE=Buz Butler - Money Ain't Everything
DYEAR=1900
DGENRE=Country
TTITLE0=Rubber Ball Bounce
TTITLE1=Medicine Show
TTITLE2=Ten Thousand Miles
TTITLE3=Make Believe Kisses
TTITLE4=Gambling Fool
TTITLE5=Tennessee Rosebud
TTITLE6=Mule Train
TTITLE7=Money Ain't Everything
TTITLE8=A Year Of City Livin'
TTITLE9=I Framed The Wrong Picture
TTITLE10=It Only Cost Three Cents To Break My Heart
TTITLE11=Smokey Mountain Waltz
TTITLE12=Muleskinner Blues
TTITLE13=Get Goin' Engineer
TTITLE14=Poison Ivy
TTITLE15=Bonaparte's Retreat
TTITLE16=Bloodshot Eyes
TTITLE17=Coyote Blues
TTITLE18=A Little Scrap Of Paper
TTITLE19=Strike A Match
TTITLE20=The One That I Want Won't Have Me
TTITLE21=We Get Along So Good Together
TTITLE22=Chew Tobacco Rag
TTITLE23=Friend In The Tennessee Waltz
EXTD=
EXTT0=
EXTT1=
EXTT2=
EXTT3=
EXTT4=
EXTT5=
EXTT6=
EXTT7=
EXTT8=
EXTT9=
EXTT10=
EXTT11=
EXTT12=
EXTT13=
EXTT14=
EXTT15=
EXTT16=
EXTT17=
EXTT18=
EXTT19=
EXTT20=
EXTT21=
EXTT22=
EXTT23=
PLAYORDER=
